# xmcd
#
# Track frame offsets:
#	150
#	12693
#	25621
#	42094
#	56141
#	72203
#	85344
#	99013
#	113682
#	128087
#	143046
#	158146
#	185984
#	200333
#	216933
#
# Disc length: 3056 seconds
# Revision: 0
# Processed by: cddbd v1.5.2PL0 Copyright (c) Steve Scherf et al.
# Submitted via: dBpowerAMP V12.0
#
DISCID=ce0bee0f
DTITLE=Jean Prescott - Daughter Of The Prairie
DYEAR=2011
DGENRE=Country
TTITLE0=Fanny Sperry Steele
TTITLE1=Cowgirl Blues
TTITLE2=Songbird of the Prairie
TTITLE3=Women of the West
TTITLE4=Handmade Gift
TTITLE5=Dancing on Daddy's Boots
TTITLE6=Road of Dreams
TTITLE7=A Woman's Life
TTITLE8=Queen of Diamonds
TTITLE9=Range Romance
TTITLE10=Woman at the Windmill
TTITLE11=Daughter of the Prairie
TTITLE12=White Women's Clothes
TTITLE13=Maria Benitez
TTITLE14=Red Wing
EXTD=
EXTT0=
EXTT1=
EXTT2=
EXTT3=
EXTT4=
EXTT5=
EXTT6=
EXTT7=
EXTT8=
EXTT9=
EXTT10=
EXTT11=
EXTT12=
EXTT13=
EXTT14=
PLAYORDER=
